<svg width="34" height="30" viewBox="0 0 34 30" fill="none" xmlns="http://www.w3.org/2000/svg">
  <path
    d="M28.962 5.59877C31.1313 8.2686 32.3158 11.6062 32.3158 15.049H34L30.4754 21.0801L26.9751 15.049H28.7489C28.7489 12.4282 27.8473 9.88762 26.1959 7.85529C24.5445 5.82297 22.9511 4.66679 20.4063 3.97629V0.392096C23.7709 1.09009 26.7926 2.92895 28.962 5.59877Z"
    fill="#E9E6E5" />
  <path
    d="M5.03805 24.4849C2.86866 21.8151 1.68415 18.4775 1.68415 15.0347H0L3.52462 9.00358L7.02494 15.0347H5.25108C5.25108 17.6554 6.15275 20.196 7.80413 22.2284C9.45551 24.2607 11.0489 25.4169 13.5937 26.1074L13.5937 29.6916C10.2291 28.9936 7.20744 27.1547 5.03805 24.4849Z"
    fill="#E9E6E5" />
  <path fill-rule="evenodd" clip-rule="evenodd"
    d="M4.21783 7.21931C5.71016 4.7608 7.87551 2.78324 10.4566 1.5216C13.0377 0.259954 15.926 -0.232723 18.7783 0.102094L18.7597 2.53491V6.94368C22.4445 7.75582 25.2019 11.0467 25.2019 14.9828C25.2019 19.5288 21.5239 23.2141 16.9868 23.2141C12.4498 23.2141 8.77184 19.5288 8.77184 14.9828C8.77184 11.0364 11.5435 7.73871 15.2428 6.93739V3.48686C14.0668 3.68291 12.9174 4.03297 11.9173 4.52183C9.90954 5.50324 8.21801 6.47406 6.09503 10.451L4.21783 7.21931ZM16.9868 19.7921C19.6377 19.7921 21.7866 17.6389 21.7866 14.9828C21.7866 12.3267 19.6377 10.1735 16.9868 10.1735C14.336 10.1735 12.1871 12.3267 12.1871 14.9828C12.1871 17.6389 14.336 19.7921 16.9868 19.7921Z"
    fill="#E9E6E5" />
  <path fill-rule="evenodd" clip-rule="evenodd"
    d="M29.7994 22.7807C28.307 25.2392 26.1417 27.2168 23.5606 28.4784C20.9795 29.74 18.0912 30.2327 15.2389 29.8979L15.2575 27.4651V23.0563C11.5727 22.2442 8.81535 18.9533 8.81535 15.0172C8.81535 10.4712 12.4933 6.7859 17.0304 6.7859C21.5674 6.7859 25.2454 10.4712 25.2454 15.0172C25.2454 18.9636 22.4737 22.2613 18.7744 23.0626V26.5131C19.9504 26.3171 21.0998 25.967 22.0999 25.4782C24.1077 24.4968 25.7992 23.5259 27.9222 19.549L29.7994 22.7807ZM17.0304 10.2079C14.3795 10.2079 12.2306 12.3611 12.2306 15.0172C12.2306 17.6733 14.3795 19.8265 17.0304 19.8265C19.6812 19.8265 21.8301 17.6733 21.8301 15.0172C21.8301 12.3611 19.6812 10.2079 17.0304 10.2079Z"
    fill="#E9E6E5" />
</svg>