<svg width="14" height="14" viewBox="0 0 14 14" fill="none" xmlns="http://www.w3.org/2000/svg">
  <path
    d="M6.99979 9.33333C6.57279 9.33377 6.16043 9.17771 5.84071 8.89467C5.64996 8.72492 5.46912 8.55983 5.35071 8.44142L3.67479 6.79408C3.57165 6.6843 3.51498 6.53888 3.51664 6.38826C3.51829 6.23763 3.57815 6.09349 3.68368 5.98601C3.78921 5.87852 3.93222 5.81602 4.08279 5.81159C4.23335 5.80716 4.3798 5.86115 4.49146 5.96225L6.17146 7.6125C6.28112 7.72158 6.44446 7.86975 6.61421 8.02083C6.72077 8.11483 6.85799 8.1667 7.00008 8.1667C7.14218 8.1667 7.27939 8.11483 7.38596 8.02083C7.55512 7.87033 7.71846 7.72217 7.82462 7.61658L9.50812 5.96225C9.56193 5.90497 9.62676 5.85916 9.69872 5.82756C9.77067 5.79596 9.84827 5.77923 9.92685 5.77837C10.0054 5.7775 10.0834 5.79252 10.156 5.82253C10.2286 5.85254 10.2945 5.89692 10.3495 5.953C10.4046 6.00908 10.4477 6.0757 10.4764 6.14887C10.5051 6.22205 10.5187 6.30026 10.5164 6.37881C10.514 6.45736 10.4959 6.53464 10.463 6.606C10.43 6.67736 10.383 6.74134 10.3248 6.79408L8.64537 8.44433C8.52871 8.561 8.34963 8.72433 8.15946 8.89292C7.83993 9.17687 7.42726 9.3336 6.99979 9.33333Z"
    fill="white" />
</svg>
  